<?xml version="1.0" standalone="no"?>
<!DOCTYPE svg PUBLIC "-//W3C//DTD SVG 20010904//EN"
 "http://www.w3.org/TR/2001/REC-SVG-20010904/DTD/svg10.dtd">
<svg version="1.0" xmlns="http://www.w3.org/2000/svg"
 width="96.000000pt" height="96.000000pt" viewBox="0 0 96.000000 96.000000"
 preserveAspectRatio="xMidYMid meet">

<g transform="translate(0.000000,96.000000) scale(0.100000,-0.100000)"
fill="#000000" stroke="none">
<path d="M251 822 c-35 -19 -71 -72 -71 -104 0 -9 -5 -39 -11 -67 -9 -43 -14
-50 -37 -53 -39 -4 -51 -37 -39 -101 11 -59 32 -84 54 -65 11 9 13 24 8 60
l-7 48 331 0 c276 0 331 -2 331 -14 0 -8 -7 -48 -16 -91 -17 -85 -14 -105 16
-105 25 0 26 1 49 122 21 112 14 141 -32 146 -15 2 -27 4 -27 5 0 1 -7 37 -15
80 -28 149 -44 157 -307 157 -168 0 -198 -2 -227 -18z m439 -60 c18 -14 47
-106 50 -154 0 -5 -117 -8 -260 -8 -143 0 -260 3 -260 8 1 4 7 36 15 72 21
100 21 100 245 100 165 0 190 -2 210 -18z"/>
<path d="M264 466 c-7 -19 15 -208 26 -219 4 -5 16 -7 26 -5 17 3 19 12 16 75
-5 120 -14 158 -40 161 -13 2 -25 -3 -28 -12z"/>
<path d="M395 468 c-3 -8 -4 -61 -3 -119 3 -104 3 -104 28 -104 l25 0 0 115
c0 112 -1 115 -23 118 -12 2 -24 -3 -27 -10z"/>
<path d="M515 468 c-3 -8 -4 -61 -3 -119 3 -104 3 -104 28 -104 l25 0 0 115
c0 112 -1 115 -23 118 -12 2 -24 -3 -27 -10z"/>
<path d="M647 473 c-9 -14 -29 -204 -23 -219 3 -9 15 -14 28 -12 26 3 35 41
40 161 3 67 2 72 -19 75 -11 2 -23 0 -26 -5z"/>
<path d="M125 368 c-8 -21 22 -164 40 -192 34 -51 63 -56 317 -56 207 0 237 2
267 18 65 35 95 137 42 137 -19 0 -27 -7 -33 -32 -16 -60 -28 -63 -279 -63
-272 0 -262 -4 -287 115 -15 69 -20 80 -40 83 -12 2 -24 -3 -27 -10z"/>
</g>
</svg>
