<?xml version="1.0" standalone="no"?>
<!DOCTYPE svg PUBLIC "-//W3C//DTD SVG 20010904//EN"
 "http://www.w3.org/TR/2001/REC-SVG-20010904/DTD/svg10.dtd">
<svg version="1.0" xmlns="http://www.w3.org/2000/svg"
 width="100.000000pt" height="100.000000pt" viewBox="0 0 100.000000 100.000000"
 preserveAspectRatio="xMidYMid meet">

<g transform="translate(0.000000,100.000000) scale(0.100000,-0.100000)"
fill="#000000" stroke="none">
<path d="M127 838 c-2 -7 0 -21 5 -30 8 -17 32 -18 282 -18 l273 0 92 -109 91
-109 0 -126 c0 -138 -6 -152 -55 -126 -39 21 -58 7 -50 -39 7 -44 -11 -71 -49
-71 -48 0 -62 56 -25 96 12 13 19 30 16 38 -10 25 -53 19 -75 -9 -19 -24 -24
-25 -130 -25 -109 0 -111 0 -140 30 -24 24 -39 30 -72 30 -46 0 -94 -21 -103
-45 -11 -27 -48 -18 -60 15 -10 28 -15 30 -60 30 -33 0 -49 -5 -53 -15 -7 -18
13 -45 34 -45 8 0 25 -11 38 -25 13 -14 37 -28 54 -31 17 -4 30 -13 30 -21 0
-8 16 -31 35 -50 28 -28 41 -34 67 -31 27 2 33 7 33 27 0 19 -7 27 -32 33 -37
10 -52 43 -33 77 20 38 90 23 90 -20 0 -28 28 -45 51 -31 11 7 60 12 124 12
93 0 105 -2 105 -17 1 -43 57 -83 115 -83 29 0 45 8 71 34 19 19 34 41 34 50
0 9 7 16 15 16 28 0 67 24 81 51 18 35 20 259 2 292 -13 26 -160 201 -195 235
-24 22 -27 22 -313 22 -222 0 -289 -3 -293 -12z"/>
<path d="M610 731 c-13 -26 -13 -120 1 -160 15 -43 35 -51 122 -51 78 0 103
12 91 44 -5 13 -21 16 -80 16 l-74 0 0 73 c0 72 -10 97 -37 97 -7 0 -17 -9
-23 -19z"/>
<path d="M54 685 c-12 -30 15 -45 81 -45 66 0 93 15 81 45 -8 22 -154 22 -162
0z"/>
<path d="M19 524 c-20 -24 1 -48 46 -52 73 -6 112 20 79 53 -21 21 -107 20
-125 -1z"/>
</g>
</svg>
