<?xml version="1.0" standalone="no"?>
<!DOCTYPE svg PUBLIC "-//W3C//DTD SVG 20010904//EN"
 "http://www.w3.org/TR/2001/REC-SVG-20010904/DTD/svg10.dtd">
<svg version="1.0" xmlns="http://www.w3.org/2000/svg"
 width="96.000000pt" height="96.000000pt" viewBox="0 0 96.000000 96.000000"
 preserveAspectRatio="xMidYMid meet">

<g transform="translate(0.000000,96.000000) scale(0.100000,-0.100000)"
fill="#000000" stroke="none">
<path d="M375 777 c-58 -54 -77 -78 -72 -90 11 -30 38 -19 108 44 l69 60 186
-166 c102 -91 191 -164 197 -162 6 2 15 11 21 21 9 15 3 25 -36 60 l-48 42 0
91 c0 113 -7 123 -90 123 -57 0 -90 -15 -90 -42 0 -5 -26 13 -59 41 -36 31
-68 51 -83 51 -17 0 -50 -23 -103 -73z m365 -89 l0 -52 -30 29 c-16 16 -30 39
-30 52 0 19 5 23 30 23 29 0 30 -1 30 -52z"/>
<path d="M152 579 c-45 -40 -82 -78 -82 -84 0 -7 7 -18 15 -25 13 -11 21 -9
45 9 l30 22 0 -179 c0 -244 -31 -222 323 -222 348 0 319 -19 315 205 l-3 160
-25 0 -25 0 -3 -152 -3 -153 -69 0 -70 0 0 114 c0 146 0 146 -120 146 -117 0
-122 -4 -118 -119 3 -84 3 -86 28 -86 24 0 25 3 28 73 l3 72 59 0 60 0 0 -100
0 -100 -160 0 -160 0 0 198 0 199 25 23 c28 26 30 63 5 68 -9 1 -53 -30 -98
-69z"/>
</g>
</svg>
