<?xml version="1.0" standalone="no"?>
<!DOCTYPE svg PUBLIC "-//W3C//DTD SVG 20010904//EN"
 "http://www.w3.org/TR/2001/REC-SVG-20010904/DTD/svg10.dtd">
<svg version="1.0" xmlns="http://www.w3.org/2000/svg"
 width="96.000000pt" height="96.000000pt" viewBox="0 0 96.000000 96.000000"
 preserveAspectRatio="xMidYMid meet">

<g transform="translate(0.000000,96.000000) scale(0.100000,-0.100000)"
fill="#000000" stroke="none">
<path d="M125 835 c-25 -24 -25 -26 -25 -208 0 -151 3 -187 15 -197 8 -7 22
-10 30 -6 13 4 15 34 15 191 l0 185 319 0 320 0 3 -42 c3 -38 6 -43 28 -43 23
0 25 4 28 47 3 40 -1 52 -22 73 l-25 25 -331 0 -331 0 -24 -25z"/>
<path d="M462 688 c-7 -7 -12 -42 -12 -85 0 -66 -2 -73 -20 -73 -30 0 -25 -41
8 -73 15 -15 34 -27 42 -27 8 0 27 12 42 27 33 32 38 73 8 73 -18 0 -20 7 -20
73 0 65 -10 97 -30 97 -3 0 -11 -5 -18 -12z"/>
<path d="M807 654 c-4 -4 -7 -72 -7 -151 l0 -143 -39 0 c-46 0 -70 -22 -51
-45 8 -10 31 -15 71 -15 l59 0 0 -80 0 -80 -265 0 c-228 0 -266 -2 -271 -15
-4 -8 -1 -22 6 -30 10 -13 55 -15 277 -15 l264 0 24 25 c23 22 25 32 25 113 0
74 -3 94 -20 114 -17 22 -20 44 -22 174 -3 141 -4 149 -23 152 -12 2 -24 0
-28 -4z"/>
<path d="M85 335 c-23 -22 -25 -32 -25 -115 0 -83 2 -93 25 -115 20 -21 34
-25 83 -25 41 0 63 5 72 15 22 26 -5 45 -66 45 l-54 0 0 80 0 80 262 2 c248 3
263 4 266 22 2 10 -2 22 -10 27 -7 5 -129 9 -271 9 l-258 0 -24 -25z"/>
<path d="M377 264 c-15 -15 -6 -61 16 -82 19 -18 35 -22 88 -22 56 0 69 3 88
24 31 33 26 81 -9 81 -18 0 -26 -6 -28 -22 -3 -20 -9 -23 -52 -23 -43 0 -49 3
-52 23 -3 22 -36 36 -51 21z"/>
</g>
</svg>
