<?xml version="1.0" standalone="no"?>
<!DOCTYPE svg PUBLIC "-//W3C//DTD SVG 20010904//EN"
 "http://www.w3.org/TR/2001/REC-SVG-20010904/DTD/svg10.dtd">
<svg version="1.0" xmlns="http://www.w3.org/2000/svg"
 width="100.000000pt" height="100.000000pt" viewBox="0 0 100.000000 100.000000"
 preserveAspectRatio="xMidYMid meet">

<g transform="translate(0.000000,100.000000) scale(0.100000,-0.100000)"
fill="#000000" stroke="none">
<path d="M371 974 c-82 -22 -150 -62 -216 -129 -98 -97 -145 -210 -145 -345 0
-141 70 -304 112 -262 8 8 6 18 -6 37 -59 90 -75 250 -36 364 61 181 226 302
415 303 127 0 239 -47 324 -137 83 -88 123 -186 123 -305 0 -79 -14 -136 -50
-208 -22 -45 -24 -55 -11 -63 37 -24 98 110 106 236 7 98 -8 174 -50 257 -37
75 -130 172 -203 210 -105 56 -249 73 -363 42z"/>
<path d="M448 751 c-70 -23 -128 -100 -128 -169 0 -38 23 -98 48 -125 28 -31
88 -57 132 -57 44 0 104 26 132 57 25 27 48 87 48 125 0 48 -37 116 -79 144
-41 26 -111 38 -153 25z m119 -61 c75 -45 84 -148 19 -207 -31 -28 -43 -33
-87 -33 -46 0 -55 4 -90 39 -33 32 -39 45 -39 80 0 80 56 141 130 141 19 0 49
-9 67 -20z"/>
<path d="M415 300 c-67 -14 -132 -44 -190 -85 -70 -51 -74 -63 -35 -96 113
-95 286 -132 435 -94 101 27 222 104 211 135 -10 25 -113 94 -177 118 -68 25
-183 36 -244 22z m190 -54 c54 -14 116 -44 154 -74 l24 -20 -54 -31 c-146 -84
-323 -84 -461 1 -57 35 -58 33 30 85 85 50 207 66 307 39z"/>
</g>
</svg>
